<svg xmlns="http://www.w3.org/2000/svg" xmlns:xlink="http://www.w3.org/1999/xlink" width="500" zoomAndPan="magnify" viewBox="0 0 375 374.999991" height="500" preserveAspectRatio="xMidYMid meet" version="1.0"><defs><filter x="0%" y="0%" width="100%" height="100%" id="a5d736bbce"><feColorMatrix values="0 0 0 0 1 0 0 0 0 1 0 0 0 0 1 0 0 0 1 0" color-interpolation-filters="sRGB"/></filter><g/><clipPath id="181d1eb3dd"><path d="M 85 172 L 111.722656 172 L 111.722656 203 L 85 203 Z M 85 172 " clip-rule="nonzero"/></clipPath><clipPath id="16bf2bae75"><path d="M 76.472656 187 L 98 187 L 98 199 L 76.472656 199 Z M 76.472656 187 " clip-rule="nonzero"/></clipPath><mask id="748396d27a"><g filter="url(#a5d736bbce)"><rect x="-37.5" width="450" fill="#000000" y="-37.499999" height="449.999989" fill-opacity="0.15"/></g></mask><clipPath id="9b47c7aab8"><path d="M 1 0.199219 L 21.441406 0.199219 L 21.441406 11.71875 L 1 11.71875 Z M 1 0.199219 " clip-rule="nonzero"/></clipPath><clipPath id="a3d8eb71fe"><rect x="0" width="22" y="0" height="12"/></clipPath><clipPath id="0f830a8175"><path d="M 84 187 L 111.722656 187 L 111.722656 203 L 84 203 Z M 84 187 " clip-rule="nonzero"/></clipPath><mask id="523fb0ffcd"><g filter="url(#a5d736bbce)"><rect x="-37.5" width="450" fill="#000000" y="-37.499999" height="449.999989" fill-opacity="0.15"/></g></mask><clipPath id="1afc5ac86a"><path d="M 1 0.199219 L 27.722656 0.199219 L 27.722656 15.558594 L 1 15.558594 Z M 1 0.199219 " clip-rule="nonzero"/></clipPath><clipPath id="c3d839ba33"><rect x="0" width="28" y="0" height="16"/></clipPath></defs><g clip-path="url(#181d1eb3dd)"><path fill="#1a1a1b" d="M 112.0625 187.488281 L 112.0625 187.5 C 112.074219 187.816406 111.566406 188.625 109.78125 190.113281 C 107.339844 192.160156 91.023438 203.367188 85.257812 202.378906 C 84.726562 202.285156 85.128906 200.710938 85.882812 198.609375 C 91.511719 196.132812 98.203125 191.300781 99.023438 190.621094 C 100.636719 189.273438 101.253906 188.421875 101.242188 187.5 L 101.242188 187.476562 C 101.242188 186.722656 100.859375 185.90625 99.023438 184.375 C 98.203125 183.695312 91.511719 178.863281 85.882812 176.378906 C 85.128906 174.277344 84.726562 172.703125 85.257812 172.617188 C 91.023438 171.632812 107.339844 182.835938 109.78125 184.886719 C 111.554688 186.351562 112.0625 187.148438 112.0625 187.488281 Z M 112.0625 187.488281 " fill-opacity="1" fill-rule="nonzero"/></g><path fill="#1a1a1b" d="M 97.246094 187.488281 C 97.257812 187.742188 96.875 188.335938 95.546875 189.441406 C 93.722656 190.960938 81.582031 199.308594 77.292969 198.578125 C 76.472656 198.4375 78.578125 193.691406 79.882812 190.398438 C 80.425781 189.039062 80.816406 187.933594 80.816406 187.5 C 80.816406 187.0625 80.414062 185.957031 79.882812 184.597656 C 78.585938 181.308594 76.484375 176.558594 77.292969 176.421875 C 81.582031 175.6875 93.722656 184.027344 95.546875 185.542969 C 96.855469 186.648438 97.246094 187.242188 97.246094 187.488281 Z M 97.246094 187.488281 " fill-opacity="1" fill-rule="nonzero"/><g clip-path="url(#16bf2bae75)"><g mask="url(#748396d27a)"><g transform="matrix(1, 0, 0, 1, 76, 187)"><g clip-path="url(#a3d8eb71fe)"><g clip-path="url(#9b47c7aab8)"><path fill="#1a1a1b" d="M 19.546875 2.441406 C 17.722656 3.960938 5.582031 12.308594 1.292969 11.578125 C 0.472656 11.4375 2.578125 6.691406 3.882812 3.398438 C 4.425781 2.039062 4.816406 0.933594 4.816406 0.5 L 21.246094 0.5 C 21.257812 0.742188 20.875 1.335938 19.546875 2.441406 Z M 19.546875 2.441406 " fill-opacity="1" fill-rule="nonzero"/></g></g></g></g></g><g clip-path="url(#0f830a8175)"><g mask="url(#523fb0ffcd)"><g transform="matrix(1, 0, 0, 1, 84, 187)"><g clip-path="url(#c3d839ba33)"><g clip-path="url(#1afc5ac86a)"><path fill="#1a1a1b" d="M 28.0625 0.5 C 28.074219 0.816406 27.566406 1.625 25.78125 3.113281 C 23.339844 5.160156 7.023438 16.367188 1.257812 15.378906 C 0.726562 15.285156 1.128906 13.710938 1.882812 11.609375 C 7.511719 9.132812 14.203125 4.300781 15.023438 3.621094 C 16.636719 2.273438 17.253906 1.421875 17.242188 0.5 Z M 28.0625 0.5 " fill-opacity="1" fill-rule="nonzero"/></g></g></g></g></g><g fill="#1a1a1b" fill-opacity="1"><g transform="translate(117.694171, 202.874987)"><g><path d="M 6.03125 -3.390625 C 2.863281 -6.210938 1.28125 -9.828125 1.28125 -14.234375 C 1.28125 -18.648438 2.929688 -22.273438 6.234375 -25.109375 C 9.535156 -27.953125 13.613281 -29.375 18.46875 -29.375 C 23.25 -29.375 27.28125 -27.941406 30.5625 -25.078125 C 33.84375 -22.222656 35.484375 -18.609375 35.484375 -14.234375 C 35.484375 -9.859375 33.878906 -6.253906 30.671875 -3.421875 C 27.460938 -0.585938 23.394531 0.828125 18.46875 0.828125 C 13.351562 0.828125 9.207031 -0.578125 6.03125 -3.390625 Z M 13.65625 -19.078125 C 12.375 -17.816406 11.734375 -16.203125 11.734375 -14.234375 C 11.734375 -12.273438 12.34375 -10.671875 13.5625 -9.421875 C 14.789062 -8.179688 16.40625 -7.5625 18.40625 -7.5625 C 20.332031 -7.5625 21.914062 -8.191406 23.15625 -9.453125 C 24.40625 -10.710938 25.03125 -12.304688 25.03125 -14.234375 C 25.03125 -16.203125 24.390625 -17.816406 23.109375 -19.078125 C 21.828125 -20.335938 20.257812 -20.96875 18.40625 -20.96875 C 16.519531 -20.96875 14.9375 -20.335938 13.65625 -19.078125 Z M 13.65625 -19.078125 "/></g></g></g><g fill="#1a1a1b" fill-opacity="1"><g transform="translate(151.731656, 202.874987)"><g><path d="M 3.34375 0 L 3.34375 -28.53125 L 13.1875 -28.53125 L 13.1875 -25.53125 L 13.296875 -25.53125 C 15.847656 -28.09375 18.570312 -29.375 21.46875 -29.375 C 22.875 -29.375 24.269531 -29.1875 25.65625 -28.8125 C 27.050781 -28.4375 28.390625 -27.859375 29.671875 -27.078125 C 30.953125 -26.304688 31.988281 -25.207031 32.78125 -23.78125 C 33.582031 -22.351562 33.984375 -20.691406 33.984375 -18.796875 L 33.984375 0 L 24.140625 0 L 24.140625 -16.125 C 24.140625 -17.613281 23.664062 -18.910156 22.71875 -20.015625 C 21.769531 -21.128906 20.539062 -21.6875 19.03125 -21.6875 C 17.539062 -21.6875 16.191406 -21.113281 14.984375 -19.96875 C 13.785156 -18.820312 13.1875 -17.539062 13.1875 -16.125 L 13.1875 0 Z M 3.34375 0 "/></g></g></g><g fill="#1a1a1b" fill-opacity="1"><g transform="translate(185.769141, 202.874987)"><g><path d="M 5 -28.53125 L 5 -39.15625 L 14.859375 -39.15625 L 14.859375 -28.53125 L 20.859375 -28.53125 L 20.859375 -21.03125 L 14.859375 -21.03125 L 14.859375 -11.953125 C 14.859375 -9.328125 15.597656 -8.015625 17.078125 -8.015625 C 17.453125 -8.015625 17.84375 -8.085938 18.25 -8.234375 C 18.65625 -8.378906 18.96875 -8.523438 19.1875 -8.671875 L 19.53125 -8.90625 L 21.96875 -0.953125 C 19.851562 0.234375 17.441406 0.828125 14.734375 0.828125 C 12.878906 0.828125 11.285156 0.503906 9.953125 -0.140625 C 8.617188 -0.785156 7.609375 -1.65625 6.921875 -2.75 C 6.234375 -3.84375 5.738281 -4.992188 5.4375 -6.203125 C 5.144531 -7.410156 5 -8.695312 5 -10.0625 L 5 -21.03125 L 0.890625 -21.03125 L 0.890625 -28.53125 Z M 5 -28.53125 "/></g></g></g><g fill="#1a1a1b" fill-opacity="1"><g transform="translate(205.012448, 202.874987)"><g><path d="M 3.34375 0 L 3.34375 -28.53125 L 13.1875 -28.53125 L 13.1875 -24.421875 L 13.296875 -24.421875 C 13.367188 -24.566406 13.488281 -24.75 13.65625 -24.96875 C 13.820312 -25.195312 14.179688 -25.585938 14.734375 -26.140625 C 15.296875 -26.703125 15.890625 -27.203125 16.515625 -27.640625 C 17.148438 -28.085938 17.96875 -28.488281 18.96875 -28.84375 C 19.96875 -29.195312 20.988281 -29.375 22.03125 -29.375 C 23.101562 -29.375 24.15625 -29.222656 25.1875 -28.921875 C 26.226562 -28.628906 26.992188 -28.332031 27.484375 -28.03125 L 28.25 -27.59375 L 24.140625 -19.25 C 22.921875 -20.28125 21.21875 -20.796875 19.03125 -20.796875 C 17.84375 -20.796875 16.820312 -20.535156 15.96875 -20.015625 C 15.113281 -19.503906 14.507812 -18.875 14.15625 -18.125 C 13.800781 -17.382812 13.550781 -16.753906 13.40625 -16.234375 C 13.257812 -15.722656 13.1875 -15.316406 13.1875 -15.015625 L 13.1875 0 Z M 3.34375 0 "/></g></g></g><g fill="#1a1a1b" fill-opacity="1"><g transform="translate(229.984324, 202.874987)"><g><path d="M 5.28125 -3.53125 C 2.613281 -6.445312 1.28125 -10.015625 1.28125 -14.234375 C 1.28125 -18.460938 2.613281 -22.039062 5.28125 -24.96875 C 7.957031 -27.90625 11.351562 -29.375 15.46875 -29.375 C 19.25 -29.375 22.363281 -28.1875 24.8125 -25.8125 L 24.8125 -28.53125 L 34.65625 -28.53125 L 34.65625 0 L 24.921875 0 L 24.921875 -3.21875 L 24.8125 -3.21875 C 22.363281 -0.519531 19.25 0.828125 15.46875 0.828125 C 11.351562 0.828125 7.957031 -0.625 5.28125 -3.53125 Z M 13.65625 -19.078125 C 12.375 -17.816406 11.734375 -16.203125 11.734375 -14.234375 C 11.734375 -12.273438 12.34375 -10.671875 13.5625 -9.421875 C 14.789062 -8.179688 16.40625 -7.5625 18.40625 -7.5625 C 20.332031 -7.5625 21.914062 -8.191406 23.15625 -9.453125 C 24.40625 -10.710938 25.03125 -12.304688 25.03125 -14.234375 C 25.03125 -16.203125 24.390625 -17.816406 23.109375 -19.078125 C 21.828125 -20.335938 20.257812 -20.96875 18.40625 -20.96875 C 16.519531 -20.96875 14.9375 -20.335938 13.65625 -19.078125 Z M 13.65625 -19.078125 "/></g></g></g><g fill="#1a1a1b" fill-opacity="1"><g transform="translate(265.245388, 202.874987)"><g><path d="M 18.515625 -21.296875 C 16.660156 -21.296875 15.066406 -20.609375 13.734375 -19.234375 C 12.398438 -17.867188 11.734375 -16.222656 11.734375 -14.296875 C 11.734375 -12.328125 12.398438 -10.65625 13.734375 -9.28125 C 15.066406 -7.914062 16.660156 -7.234375 18.515625 -7.234375 C 19.410156 -7.234375 20.253906 -7.34375 21.046875 -7.5625 C 21.847656 -7.789062 22.4375 -8.015625 22.8125 -8.234375 L 23.3125 -8.5625 L 26.640625 -1.71875 C 26.378906 -1.539062 26.015625 -1.3125 25.546875 -1.03125 C 25.085938 -0.75 24.03125 -0.367188 22.375 0.109375 C 20.726562 0.585938 18.960938 0.828125 17.078125 0.828125 C 12.890625 0.828125 9.207031 -0.644531 6.03125 -3.59375 C 2.863281 -6.539062 1.28125 -10.070312 1.28125 -14.1875 C 1.28125 -18.34375 2.863281 -21.910156 6.03125 -24.890625 C 9.207031 -27.878906 12.890625 -29.375 17.078125 -29.375 C 18.960938 -29.375 20.703125 -29.148438 22.296875 -28.703125 C 23.898438 -28.253906 25.035156 -27.8125 25.703125 -27.375 L 26.640625 -26.703125 L 23.3125 -19.96875 C 22.082031 -20.851562 20.484375 -21.296875 18.515625 -21.296875 Z M 18.515625 -21.296875 "/></g></g></g></svg>