<svg xmlns="http://www.w3.org/2000/svg" xmlns:xlink="http://www.w3.org/1999/xlink" width="500" zoomAndPan="magnify" viewBox="0 0 375 374.999991" height="500" preserveAspectRatio="xMidYMid meet" version="1.0"><defs><filter x="0%" y="0%" width="100%" height="100%" id="2d854221e0"><feColorMatrix values="0 0 0 0 1 0 0 0 0 1 0 0 0 0 1 0 0 0 1 0" color-interpolation-filters="sRGB"/></filter><clipPath id="9032f3b942"><path d="M 141 113 L 275.75 113 L 275.75 262 L 141 262 Z M 141 113 " clip-rule="nonzero"/></clipPath><mask id="061000d853"><g filter="url(#2d854221e0)"><rect x="-37.5" width="450" fill="#000000" y="-37.499999" height="449.999989" fill-opacity="0.15"/></g></mask><clipPath id="37a2edcdb0"><path d="M 0 1 L 100.558594 1 L 100.558594 56.878906 L 0 56.878906 Z M 0 1 " clip-rule="nonzero"/></clipPath><clipPath id="b10f28337e"><rect x="0" width="101" y="0" height="57"/></clipPath><clipPath id="795788c381"><path d="M 141 186 L 275.75 186 L 275.75 262 L 141 262 Z M 141 186 " clip-rule="nonzero"/></clipPath><mask id="2a9a612dc1"><g filter="url(#2d854221e0)"><rect x="-37.5" width="450" fill="#000000" y="-37.499999" height="449.999989" fill-opacity="0.15"/></g></mask><clipPath id="e88081b68e"><path d="M 0.359375 1 L 134.75 1 L 134.75 75.839844 L 0.359375 75.839844 Z M 0.359375 1 " clip-rule="nonzero"/></clipPath><clipPath id="31843d57d1"><rect x="0" width="135" y="0" height="76"/></clipPath></defs><g clip-path="url(#9032f3b942)"><path fill="#0e3b43" d="M 275.441406 187.441406 L 275.441406 187.496094 C 275.492188 189.070312 272.972656 193.058594 264.152344 200.410156 C 252.078125 210.542969 171.433594 265.933594 142.921875 261.050781 C 140.296875 260.578125 142.292969 252.808594 146.019531 242.414062 C 173.847656 230.179688 206.925781 206.292969 210.96875 202.929688 C 218.949219 196.261719 221.992188 192.0625 221.941406 187.496094 L 221.941406 187.390625 C 221.941406 183.660156 220.050781 179.621094 210.96875 172.058594 C 206.925781 168.699219 173.847656 144.808594 146.019531 132.523438 C 142.292969 122.128906 140.296875 114.355469 142.921875 113.9375 C 171.433594 109.054688 252.078125 164.445312 264.152344 174.578125 C 272.921875 181.824219 275.441406 185.761719 275.441406 187.441406 Z M 275.441406 187.441406 " fill-opacity="1" fill-rule="nonzero"/></g><path fill="#0e3b43" d="M 202.199219 187.441406 C 202.25 188.703125 200.359375 191.640625 193.796875 197.101562 C 184.769531 204.609375 124.757812 245.878906 103.542969 242.257812 C 99.5 241.574219 109.898438 218.105469 116.355469 201.828125 C 119.03125 195.109375 120.976562 189.648438 120.976562 187.496094 C 120.976562 185.34375 118.980469 179.882812 116.355469 173.160156 C 109.949219 156.886719 99.554688 133.417969 103.542969 132.734375 C 124.757812 129.109375 184.769531 170.324219 193.796875 177.835938 C 200.257812 183.292969 202.199219 186.234375 202.199219 187.441406 Z M 202.199219 187.441406 " fill-opacity="1" fill-rule="nonzero"/><g mask="url(#061000d853)"><g transform="matrix(1, 0, 0, 1, 102, 186)"><g clip-path="url(#b10f28337e)"><g clip-path="url(#37a2edcdb0)"><path fill="#0e3b43" d="M 91.796875 11.101562 C 82.769531 18.609375 22.757812 59.878906 1.542969 56.257812 C -2.5 55.574219 7.898438 32.105469 14.355469 15.828125 C 17.03125 9.109375 18.976562 3.648438 18.976562 1.496094 L 100.199219 1.496094 C 100.25 2.703125 98.359375 5.640625 91.796875 11.101562 Z M 91.796875 11.101562 " fill-opacity="1" fill-rule="nonzero"/></g></g></g></g><g clip-path="url(#795788c381)"><g mask="url(#2a9a612dc1)"><g transform="matrix(1, 0, 0, 1, 141, 186)"><g clip-path="url(#31843d57d1)"><g clip-path="url(#e88081b68e)"><path fill="#0e3b43" d="M 134.441406 1.496094 C 134.492188 3.070312 131.972656 7.058594 123.152344 14.410156 C 111.078125 24.542969 30.433594 79.933594 1.921875 75.050781 C -0.703125 74.578125 1.292969 66.808594 5.019531 56.414062 C 32.847656 44.179688 65.925781 20.292969 69.96875 16.929688 C 77.949219 10.261719 80.992188 6.0625 80.941406 1.496094 Z M 134.441406 1.496094 " fill-opacity="1" fill-rule="nonzero"/></g></g></g></g></g></svg>